<?xml version="1.0" encoding="UTF-8"?>
<svg id="Layer_1" data-name="Layer 1" xmlns="http://www.w3.org/2000/svg" viewBox="0 0 346.97 79.7">
  <defs>
    <style>
      .cls-1 {
        fill: #f7d784;
      }

      .cls-2 {
        fill: #acd58c;
      }

      .cls-3 {
        fill: #144843;
      }

      .cls-4 {
        fill: #124944;
      }
    </style>
  </defs>
  <g>
    <path class="cls-3" d="M153.44,10.3c0-5.35,2.96-8.66,7.22-8.66,1.98,0,3.52,.96,4.41,2.02l-.78,.9c-.9-1.01-2.09-1.68-3.63-1.68-3.54,0-5.77,2.85-5.77,7.38s2.18,7.49,5.7,7.49c1.7,0,2.96-.71,4.16-2.02l.78,.87c-1.29,1.49-2.85,2.39-5.01,2.39-4.14,0-7.08-3.33-7.08-8.69Z"/>
    <path class="cls-3" d="M176.83,12.57c0-4.09,2.57-6.46,5.54-6.46s5.54,2.37,5.54,6.46-2.57,6.41-5.54,6.41-5.54-2.34-5.54-6.41Zm9.7,0c0-3.13-1.77-5.29-4.16-5.29s-4.14,2.16-4.14,5.29,1.75,5.26,4.14,5.26,4.16-2.14,4.16-5.26Z"/>
    <path class="cls-3" d="M199.55,12.57c0-4.09,2.57-6.46,5.54-6.46s5.54,2.37,5.54,6.46-2.57,6.41-5.54,6.41-5.54-2.34-5.54-6.41Zm9.7,0c0-3.13-1.77-5.29-4.16-5.29s-4.14,2.16-4.14,5.29,1.75,5.26,4.14,5.26,4.16-2.14,4.16-5.26Zm-7.47-10.04c0-.58,.44-1.03,1.01-1.03s1.01,.46,1.01,1.03-.44,.99-1.01,.99-1.01-.44-1.01-.99Zm4.6,0c0-.58,.44-1.03,1.01-1.03s1.01,.46,1.01,1.03-.44,.99-1.01,.99-1.01-.44-1.01-.99Z"/>
    <path class="cls-3" d="M223.29,6.44h1.1l.16,1.49h.05c1.2-.92,2.6-1.82,4.09-1.82,3.26,0,4.92,2.48,4.92,6.25,0,4.18-2.53,6.62-5.4,6.62-1.15,0-2.37-.53-3.61-1.49l.02,2.25v4.41h-1.33V6.44Zm8.89,5.93c0-2.94-1.01-5.08-3.75-5.08-1.17,0-2.39,.69-3.81,1.95v7.08c1.31,1.1,2.57,1.49,3.47,1.49,2.39,0,4.09-2.16,4.09-5.45Z"/>
    <path class="cls-3" d="M245.26,12.57c0-3.98,2.62-6.46,5.38-6.46,2.96,0,4.73,2.11,4.73,5.7,0,.34-.02,.67-.07,.96h-8.69c.07,2.99,1.84,5.08,4.48,5.08,1.31,0,2.34-.41,3.26-1.06l.51,.99c-.99,.62-2.14,1.2-3.91,1.2-3.15,0-5.7-2.39-5.7-6.41Zm8.89-.85c0-2.96-1.36-4.46-3.49-4.46-2,0-3.79,1.65-4.04,4.46h7.54Z"/>
    <path class="cls-3" d="M267.7,6.44h1.1l.16,2.27h.05c.83-1.54,2.05-2.6,3.47-2.6,.48,0,.85,.07,1.24,.28l-.28,1.19c-.41-.16-.64-.21-1.13-.21-1.08,0-2.39,.8-3.29,3.08v8.23h-1.33V6.44Z"/>
    <path class="cls-3" d="M283.63,15.61c0-2.71,2.41-4,7.81-4.62,.05-1.82-.48-3.7-2.8-3.7-1.61,0-3.01,.76-3.86,1.4l-.6-.96c.94-.64,2.64-1.61,4.64-1.61,2.92,0,3.95,2.09,3.95,4.8v7.77h-1.13l-.14-1.56h-.05c-1.24,1.01-2.71,1.86-4.27,1.86-1.98,0-3.56-1.1-3.56-3.38Zm7.81,.34v-3.98c-4.83,.55-6.48,1.68-6.48,3.56,0,1.68,1.15,2.32,2.5,2.32s2.53-.64,3.98-1.91Z"/>
    <path class="cls-3" d="M306.12,15.19V7.57h-1.91v-1.01l1.95-.11,.16-3.54h1.13v3.54h3.52v1.13h-3.52v7.72c0,1.54,.41,2.55,2.04,2.55,.46,0,1.06-.16,1.49-.37l.32,1.06c-.71,.25-1.49,.46-2.04,.46-2.41,0-3.15-1.52-3.15-3.79Z"/>
    <path class="cls-3" d="M322.6,2.44c0-.64,.46-1.06,1.08-1.06s1.06,.41,1.06,1.06c0,.69-.46,1.13-1.06,1.13s-1.08-.44-1.08-1.13Zm.39,4h1.33v12.25h-1.33V6.44Z"/>
    <path class="cls-3" d="M336.96,12.57c0-3.98,2.62-6.46,5.38-6.46,2.96,0,4.73,2.11,4.73,5.7,0,.34-.02,.67-.07,.96h-8.69c.07,2.99,1.84,5.08,4.48,5.08,1.31,0,2.34-.41,3.26-1.06l.51,.99c-.99,.62-2.14,1.2-3.91,1.2-3.15,0-5.7-2.39-5.7-6.41Zm8.89-.85c0-2.96-1.36-4.46-3.49-4.46-2,0-3.79,1.65-4.04,4.46h7.54Z"/>
    <path class="cls-3" d="M160.89,27.36c6.64,0,11.06,4.29,11.06,10.81s-4.42,10.81-11.06,10.81h-7.27c-.22,0-.44-.22-.44-.47V27.83c0-.25,.22-.47,.44-.47h7.27Zm.38,15.98c2.41,0,4.04-2.07,4.04-5.17s-1.63-5.17-4.04-5.17h-1.63v10.34h1.63Z"/>
    <path class="cls-3" d="M195.89,31.75c.25,0,.47,.22,.47,.47v16.32c0,.22-.22,.44-.47,.44h-3.54c-.25,0-.41-.22-.5-.47l-.47-1.13c-1.13,1.25-2.98,2.07-5.01,2.07-4.07,0-6.49-2.6-6.49-6.86v-10.37c0-.25,.22-.47,.47-.47h5.51c.25,0,.47,.22,.47,.47v9.59c0,1.07,.66,1.79,1.66,1.79,1.22,0,1.91-1,1.91-1v-10.37c0-.25,.22-.47,.47-.47h5.51Z"/>
    <path class="cls-3" d="M220.8,31.75c.25,0,.47,.22,.47,.47v16.32c0,.22-.22,.44-.47,.44h-3.54c-.25,0-.41-.22-.5-.47l-.47-1.13c-1.13,1.25-2.98,2.07-5.01,2.07-4.07,0-6.49-2.6-6.49-6.86v-10.37c0-.25,.22-.47,.47-.47h5.51c.25,0,.47,.22,.47,.47v9.59c0,1.07,.66,1.79,1.66,1.79,1.22,0,1.91-1,1.91-1v-10.37c0-.25,.22-.47,.47-.47h5.51Z"/>
    <path class="cls-3" d="M239.82,31.75c.25,0,.44,.19,.44,.44v4.07c0,.25-.19,.44-.44,.44h-.81c-1.19,0-2.26,.53-2.66,1.32v10.49c0,.25-.22,.47-.47,.47h-5.51c-.25,0-.47-.22-.47-.47v-16.29c0-.22,.22-.44,.47-.44h3.54c.25,0,.41,.22,.5,.47l.47,1.38c.94-1.16,2.47-1.88,4.14-1.88h.81Z"/>
    <path class="cls-3" d="M262.57,31.75c.47,0,.69,.44,.47,.81l-6.11,10.46h5.54c.28,0,.47,.19,.47,.44v5.08c0,.22-.19,.44-.47,.44h-14.03c-.47,0-.72-.44-.47-.85l6.11-10.31h-4.82c-.22,0-.44-.22-.44-.47v-5.14c0-.25,.22-.47,.44-.47h13.31Z"/>
    <path class="cls-3" d="M272.35,33.69c-.09-.22-.03-.44,.16-.6,1.79-1.13,4.29-1.79,6.8-1.79,5.42,0,7.93,2.85,7.93,9.08v8.11c0,.25-.22,.47-.47,.47h-3.95c-.25,0-.5-.22-.5-.47l-.22-.85c-1.03,1.1-3.1,1.79-5.39,1.79-3.6,0-5.98-2.32-5.95-5.76,.03-3.07,2.41-5.11,5.95-5.11,1.82,0,3.45,.66,4.07,1.66v-1.32c0-1.35-.97-2.22-2.41-2.22-1.22,0-2.73,.41-3.76,1-.16,.09-.34-.03-.47-.25l-1.79-3.76Zm8.43,9.65c-.53-.53-1.07-.78-1.72-.78-.78,0-1.32,.44-1.32,1.13s.53,1.13,1.32,1.13c.66,0,1.19-.25,1.72-.78v-.69Z"/>
    <path class="cls-3" d="M296.94,33.69c-.09-.22-.03-.44,.16-.6,1.79-1.13,4.29-1.79,6.8-1.79,5.42,0,7.93,2.85,7.93,9.08v8.11c0,.25-.22,.47-.47,.47h-3.95c-.25,0-.5-.22-.5-.47l-.22-.85c-1.03,1.1-3.1,1.79-5.39,1.79-3.6,0-5.98-2.32-5.95-5.76,.03-3.07,2.41-5.11,5.95-5.11,1.82,0,3.45,.66,4.07,1.66v-1.32c0-1.35-.97-2.22-2.41-2.22-1.22,0-2.73,.41-3.76,1-.16,.09-.34-.03-.47-.25l-1.79-3.76Zm8.43,9.65c-.53-.53-1.07-.78-1.72-.78-.78,0-1.32,.44-1.32,1.13s.53,1.13,1.32,1.13c.66,0,1.19-.25,1.72-.78v-.69Z"/>
    <path class="cls-3" d="M325.3,33.06c1-1.1,2.82-1.75,4.92-1.75,2.26,0,3.98,.91,4.67,2.47,1.22-1.57,3.23-2.47,5.42-2.47,4.2,0,6.67,2.57,6.67,6.89v10.34c0,.28-.16,.44-.44,.44h-5.58c-.28,0-.44-.16-.44-.44v-9.4c-.06-1.25-.6-1.97-1.54-1.97-1.79,0-2.07,1.75-2.04,1.75v9.62c0,.28-.16,.44-.44,.44h-5.58c-.28,0-.44-.16-.44-.44v-9.4c0-1.35-.6-1.97-1.54-1.97-1.79,0-2.07,1.75-2.07,1.75v9.62c0,.28-.16,.44-.44,.44h-5.58c-.28,0-.44-.16-.44-.44v-16.35c0-.28,.16-.44,.44-.44h3.51c.22,0,.41,.09,.5,.31l.41,1Z"/>
    <path class="cls-3" d="M160.89,57.65c6.64,0,11.06,4.29,11.06,10.81s-4.42,10.81-11.06,10.81h-7.27c-.22,0-.44-.22-.44-.47v-20.68c0-.25,.22-.47,.44-.47h7.27Zm.38,15.98c2.41,0,4.04-2.07,4.04-5.17s-1.63-5.17-4.04-5.17h-1.63v10.34h1.63Z"/>
    <path class="cls-3" d="M176.15,63.98c-.09-.22-.03-.44,.16-.6,1.79-1.13,4.29-1.79,6.8-1.79,5.42,0,7.93,2.85,7.93,9.08v8.11c0,.25-.22,.47-.47,.47h-3.95c-.25,0-.5-.22-.5-.47l-.22-.85c-1.03,1.1-3.1,1.79-5.39,1.79-3.6,0-5.98-2.32-5.95-5.76,.03-3.07,2.41-5.11,5.95-5.11,1.82,0,3.45,.66,4.07,1.66v-1.32c0-1.35-.97-2.22-2.41-2.22-1.22,0-2.73,.41-3.76,1-.16,.09-.34-.03-.47-.25l-1.79-3.76Zm8.43,9.65c-.53-.53-1.07-.78-1.72-.78-.78,0-1.32,.44-1.32,1.13s.53,1.13,1.32,1.13c.66,0,1.19-.25,1.72-.78v-.69Z"/>
    <path class="cls-3" d="M195.74,63.98c-.09-.22-.03-.44,.16-.6,1.79-1.13,4.29-1.79,6.8-1.79,5.42,0,7.93,2.85,7.93,9.08v8.11c0,.25-.22,.47-.47,.47h-3.95c-.25,0-.5-.22-.5-.47l-.22-.85c-1.03,1.1-3.1,1.79-5.39,1.79-3.6,0-5.98-2.32-5.95-5.76,.03-3.07,2.41-5.11,5.95-5.11,1.82,0,3.45,.66,4.07,1.66v-1.32c0-1.35-.97-2.22-2.41-2.22-1.22,0-2.73,.41-3.76,1-.16,.09-.34-.03-.47-.25l-1.79-3.76Zm8.43,9.65c-.53-.53-1.07-.78-1.72-.78-.78,0-1.32,.44-1.32,1.13s.53,1.13,1.32,1.13c.66,0,1.19-.25,1.72-.78v-.69Z"/>
    <path class="cls-3" d="M224.15,62.03c.25,0,.44,.19,.44,.44v4.07c0,.25-.19,.44-.44,.44h-.81c-1.19,0-2.26,.53-2.66,1.32v10.49c0,.25-.22,.47-.47,.47h-5.51c-.25,0-.47-.22-.47-.47v-16.29c0-.22,.22-.44,.47-.44h3.54c.25,0,.41,.22,.5,.47l.47,1.38c.94-1.16,2.47-1.88,4.14-1.88h.81Z"/>
    <path class="cls-3" d="M233.68,56.55c.25,0,.47,.22,.47,.44v21.8c0,.25-.22,.47-.47,.47h-5.51c-.25,0-.47-.22-.47-.47v-21.8c0-.22,.22-.44,.47-.44h5.51Z"/>
    <path class="cls-3" d="M253.2,77.51c.06,.22,0,.34-.22,.47-1.66,1.1-4.07,1.75-6.48,1.75-5.54,0-9.24-3.63-9.24-9.05s3.63-9.08,9.08-9.08,8.27,3.35,8.27,9.05c0,.47-.03,.94-.12,1.41-.03,.25-.19,.38-.47,.38h-10.06s0,1.97,2.63,1.97c1.6,0,3.38-.38,4.79-1.03,.22-.09,.41,.03,.47,.25l1.35,3.88Zm-4.82-8.36c0-1.38-.85-2.29-2.1-2.29-1.41,0-2.35,.91-2.35,2.29h4.45Z"/>
    <path class="cls-3" d="M267.64,62.03c.25,0,.44,.19,.44,.44v4.07c0,.25-.19,.44-.44,.44h-.81c-1.19,0-2.26,.53-2.66,1.32v10.49c0,.25-.22,.47-.47,.47h-5.51c-.25,0-.47-.22-.47-.47v-16.29c0-.22,.22-.44,.47-.44h3.54c.25,0,.41,.22,.5,.47l.47,1.38c.94-1.16,2.47-1.88,4.14-1.88h.81Z"/>
    <path class="cls-3" d="M288.38,62.03c.28,0,.41,.22,.34,.44l-5.54,16.35c-.09,.22-.38,.44-.63,.44h-6.33c-.25,0-.5-.22-.56-.44l-5.58-16.35c-.09-.22,.06-.44,.31-.44h5.89c.28,0,.5,.19,.59,.44l2.51,9.05,2.51-9.05c.06-.28,.34-.44,.56-.44h5.92Z"/>
    <path class="cls-3" d="M305.87,77.51c.06,.22,0,.34-.22,.47-1.66,1.1-4.07,1.75-6.48,1.75-5.54,0-9.24-3.63-9.24-9.05s3.63-9.08,9.08-9.08,8.27,3.35,8.27,9.05c0,.47-.03,.94-.12,1.41-.03,.25-.19,.38-.47,.38h-10.06s0,1.97,2.63,1.97c1.6,0,3.38-.38,4.79-1.03,.22-.09,.41,.03,.47,.25l1.35,3.88Zm-4.82-8.36c0-1.38-.85-2.29-2.1-2.29-1.41,0-2.35,.91-2.35,2.29h4.45Z"/>
    <path class="cls-3" d="M325.83,77.51c.06,.22,0,.34-.22,.47-1.66,1.1-4.07,1.75-6.48,1.75-5.54,0-9.24-3.63-9.24-9.05s3.63-9.08,9.08-9.08,8.27,3.35,8.27,9.05c0,.47-.03,.94-.12,1.41-.03,.25-.19,.38-.47,.38h-10.06s0,1.97,2.63,1.97c1.6,0,3.38-.38,4.79-1.03,.22-.09,.41,.03,.47,.25l1.35,3.88Zm-4.82-8.36c0-1.38-.85-2.29-2.1-2.29-1.41,0-2.35,.91-2.35,2.29h4.45Z"/>
    <path class="cls-3" d="M335.2,63.35c1-1.1,3.13-1.75,5.04-1.75,4.26,0,6.58,1.97,6.58,6.86v10.34c0,.25-.22,.47-.47,.47h-5.51c-.25,0-.47-.22-.44-.47v-9.37c0-1.25-.56-1.97-1.54-1.97-1.79,0-2.07,1.75-2.07,1.75v9.59c0,.25-.22,.47-.47,.47h-5.51c-.25,0-.47-.22-.47-.47v-16.32c0-.28,.16-.44,.44-.44h3.51c.22,0,.41,.09,.5,.31l.41,1Z"/>
  </g>
  <path class="cls-4" d="M40.03,79.37C18.31,79.37,.63,61.69,.63,39.97S18.31,.57,40.03,.57V16.82c-12.76,0-23.15,10.38-23.15,23.15s10.38,23.15,23.15,23.15v16.25Z"/>
  <path class="cls-2" d="M54.15,79.37v-16.25c12.76,0,23.15-10.38,23.15-23.15s-10.38-23.15-23.15-23.15V.57c21.72,0,39.4,17.67,39.4,39.4s-17.67,39.4-39.4,39.4Z"/>
  <path class="cls-1" d="M97.23,79.37v-16.25c12.76,0,23.15-10.38,23.15-23.15s-10.38-23.15-23.15-23.15V.57c21.72,0,39.4,17.67,39.4,39.4s-17.67,39.4-39.4,39.4Z"/>
</svg>