<svg id="logo_provincie_overijssel" data-name="logo provincie overijssel" xmlns="http://www.w3.org/2000/svg" width="295.7" height="80" viewBox="0 0 295.7 80"><path d="M135.6,64.5c-4-4.1-3.6-8.4-7.7-12.6s-7.8-3-12-7.3-3.7-8.4-7.7-12.4a18.5,18.5,0,0,0-9.9-4.8l-.8,4.1a13.2,13.2,0,0,1,8.1,4.1c4,4.1,4,8.8,7.7,12.5s8,3.2,12,7.3,3.7,8.4,7.8,12.4S142,72,145.8,75l2.3-3.7C143.2,68.2,139.5,68.4,135.6,64.5Z" style="fill:#009ee2"/><path d="M122.3,17.9c9.9,0,17.8,8.4,17.8,18.7a18.8,18.8,0,0,1-10.6,17.2,17.4,17.4,0,0,1,1.8,3.3,22.4,22.4,0,1,0-29.7-28.9,21.4,21.4,0,0,1,4,2A17.8,17.8,0,0,1,122.3,17.9Z" style="fill:#970a2c"/><path d="M106.8,20.5a32.8,32.8,0,0,1-3.8-2.7c-3.7-3.7-3.5-8.4-7.7-12.6A18.5,18.5,0,0,0,85.4.4l-.6,4.1a13.6,13.6,0,0,1,7.9,4.2c4.2,4,4.1,8.7,7.8,12.4a11,11,0,0,0,3.5,2.6A29.2,29.2,0,0,1,106.8,20.5Z" style="fill:#009ee2"/><path d="M135.3,44.3c-4.8-3-8.6-2.9-12.4-6.8s-3.7-8.4-7.8-12.5a16.9,16.9,0,0,0-4.1-2.9,18.1,18.1,0,0,0-2.9,3.3,18.6,18.6,0,0,1,4.5,3c4,4.1,3.5,8.4,7.7,12.5s8.9,4.1,12.6,7.1Z" style="fill:#009ee2"/><path d="M160.5,57h-5.4l-7-21.5h4.5l5.3,18,5.3-18h4.3Z" style="fill:#970a2c"/><path d="M184.1,44.8H173.9c0-2.8,1.8-6.8,5.4-6.8S184.1,41.6,184.1,44.8Zm4.2,2.5V46.1c0-6-2.6-11.1-9-11.1s-9.7,5.3-9.7,11.2,3.3,11.3,10.4,11.3a17.1,17.1,0,0,0,7.1-1.2l-.2-3.4a13.7,13.7,0,0,1-6.3,1.6c-4.1,0-6.6-3.1-6.6-7.2Z" style="fill:#970a2c"/><path d="M204.2,39.3l-1.7-.3c-4.3,0-5.4,4.4-5.4,7.8V57h-4.2V40.4c0-1.6-.2-3.3-.3-4.9h4.1v4.1c.9-2.2,3.1-4.6,5.8-4.6a5.5,5.5,0,0,1,1.8.2Z" style="fill:#970a2c"/><path d="M208,31.1V26.8h4.2v4.3ZM208,57V35.5h4.2V57Z" style="fill:#970a2c"/><path d="M218.4,31.1V26.8h4.4v4.3Zm-1.2,35.7a18.4,18.4,0,0,1-3.3-.3l.2-3.4,1.6.2c2.4,0,2.7-1.7,2.7-3.8v-24h4.4V60.1c0,3.7-1.4,6.7-5.6,6.7Z" style="fill:#970a2c"/><path d="M233.7,57.5a18.7,18.7,0,0,1-6.6-1.1l.3-3.4a13.1,13.1,0,0,0,5.9,1.4c2,0,4.5-.9,4.5-3.1,0-5-10.7-3.4-10.7-10.1,0-4.5,4.4-6.2,8.2-6.2a22.7,22.7,0,0,1,5.8,1l-.3,3.2a13.1,13.1,0,0,0-5.2-1.1c-1.9,0-4.2.5-4.2,3S242,43.6,242,50.9C242,55.5,237.8,57.5,233.7,57.5Z" style="fill:#970a2c"/><path d="M251.5,57.5a19.1,19.1,0,0,1-6.6-1.1l.3-3.4a13.1,13.1,0,0,0,5.9,1.4c1.9,0,4.4-.9,4.4-3.1,0-5-10.6-3.4-10.6-10.1,0-4.5,4.4-6.2,8.1-6.2a22.7,22.7,0,0,1,5.8,1l-.2,3.2a13,13,0,0,0-5.1-1.1c-2,0-4.3.5-4.3,3s10.5,2.5,10.5,9.8C259.7,55.5,255.5,57.5,251.5,57.5Z" style="fill:#970a2c"/><path d="M277.4,44.8H267.2c0-2.8,1.8-6.8,5.4-6.8S277.4,41.6,277.4,44.8Zm4.2,2.5V46.1c0-6-2.6-11.1-9-11.1s-9.7,5.3-9.7,11.2,3.3,11.3,10.4,11.3a17.1,17.1,0,0,0,7.1-1.2l-.2-3.4a12.6,12.6,0,0,1-6.3,1.6c-4.1,0-6.6-3.1-6.6-7.2Z" style="fill:#970a2c"/><path d="M286.2,57V25.9h4.2V57Z" style="fill:#970a2c"/><path d="M18.6,40.1c0,1.3-.3,3.1-1.9,3.1s-2-1.8-2-3.1.4-3,2-3S18.6,38.8,18.6,40.1Zm2.7,0c0-2.5-1-4.8-3.8-4.8a3.5,3.5,0,0,0-2.9,1.8V35.6H12.1a20.9,20.9,0,0,1,.1,2.5V48.7h2.6V43.2a2.8,2.8,0,0,0,2.7,1.7C20.3,44.9,21.3,42.5,21.3,40.1Z" style="fill:#970a2c"/><path d="M29.2,37.7h-.8c-1.6,0-2.2,1.6-2.2,3v4.1H23.6V37.6a12.7,12.7,0,0,0-.1-2h2.4v1.8a3.1,3.1,0,0,1,2.5-2.1h.7Z" style="fill:#970a2c"/><path d="M37.6,40.1c0,1.5-.5,3.1-2.1,3.1s-2.1-1.6-2.1-3.1.5-3.1,2.1-3.1S37.6,38.7,37.6,40.1Zm2.7,0a4.4,4.4,0,0,0-4.8-4.8,4.6,4.6,0,0,0-4.8,4.2v.6a4.4,4.4,0,0,0,3.9,4.8h.9A4.4,4.4,0,0,0,40.3,41Z" style="fill:#970a2c"/><path d="M47.6,44.8H44.5l-3-9.2h2.7l1.9,7.3L48,35.6h2.6Z" style="fill:#970a2c"/><path d="M52.4,33.8v-2h2.5v2Zm0,11V35.6h2.5v9.2Z" style="fill:#970a2c"/><path d="M63.6,44.8V39.4c0-1.1-.1-2.3-1.4-2.3s-1.9,1.4-1.9,2.5v5.2H57.8V37.6a12.7,12.7,0,0,0-.1-2H60V37a3.8,3.8,0,0,1,3.1-1.7c2.2,0,3.1,1.4,3.1,3.5v6Z" style="fill:#970a2c"/><path d="M73.4,44.9c-3.1,0-5-1.8-5-4.8a4.6,4.6,0,0,1,4.3-4.8h.7a10.9,10.9,0,0,1,2.6.4v1.8a5.9,5.9,0,0,0-1.9-.5,3.1,3.1,0,0,0-2.5,3.6A3.2,3.2,0,0,0,74,43.2a3.5,3.5,0,0,0,2-.5v1.8A7.5,7.5,0,0,1,73.4,44.9Z" style="fill:#970a2c"/><path d="M78.3,33.8v-2h2.4v2Zm0,11V35.6h2.4v9.2Z" style="fill:#970a2c"/><path d="M89.4,39.4H85.6c0-1,.5-2.5,2-2.5S89.4,38.3,89.4,39.4Zm2.2,1.3v-.5c0-2.8-1.1-4.9-4-4.9a4.5,4.5,0,0,0-4.5,4.3v.5c0,3,1.7,4.8,4.7,4.8a13.3,13.3,0,0,0,3.4-.5V42.7a6.6,6.6,0,0,1-2.7.6A2.6,2.6,0,0,1,85.7,41v-.3Z" style="fill:#970a2c"/></svg>