<svg width="339" height="167" viewBox="0 0 339 167" fill="none" xmlns="http://www.w3.org/2000/svg">
<path d="M244.4 109.9H206.4C203.9 109.9 201.9 107.9 201.9 105.4V43.0998L169.5 11.3998L137.8 43.0998V105.5C137.8 108 135.8 110 133.3 110H94.8999C92.3999 110 90.3999 108 90.3999 105.5V50.9998C90.3999 49.7998 90.8999 48.6998 91.6999 47.7998L121.8 17.6998C123.6 15.8998 126.4 15.8998 128.2 17.6998L133.4 22.8998C135.2 24.6998 135.2 27.4998 133.4 29.2998C131.6 31.0998 128.8 31.0998 127 29.2998L125 27.2998L99.3999 52.8998V101H128.8V41.2998C128.8 40.0998 129.3 38.9998 130.1 38.0998L166.2 1.99978C167.9 0.299779 170.8 0.19978 172.5 1.99978L209.5 38.0998C210.4 38.8998 210.9 40.0998 210.9 41.2998V101H239.9V52.8998L214.3 27.2998L212.3 29.2998C210.5 31.0998 207.7 31.0998 205.9 29.2998C204.1 27.4998 204.1 24.6998 205.9 22.8998L211.1 17.6998C212.9 15.8998 215.7 15.8998 217.5 17.6998L247.6 47.7998C248.4 48.5998 248.9 49.7998 248.9 50.9998V105.5C248.9 107.9 246.9 109.9 244.4 109.9Z" fill="url(#paint0_linear_1361_433)"/>
<path d="M15.6001 145.3L20.3001 152.3L22.5001 145.4C22.9001 144.2 23.2001 143 23.6001 141.9C23.7001 141.6 23.9001 141.4 24.3001 141.4H28.0001C28.2001 141.4 28.5001 141.6 28.4001 142C28.0001 143.2 27.6001 144.4 27.2001 145.6L22.4001 160.6C22.2001 161.2 21.8001 161.4 21.5001 161.4C21.1001 161.4 20.9001 161.3 20.6001 160.9L14.6001 152L8.60009 160.7C8.30009 161.1 8.00009 161.4 7.70009 161.4C7.30009 161.4 6.90009 161.2 6.70009 160.6L2.00009 146C1.60009 144.6 1.20009 143.4 0.700085 142C0.600085 141.6 0.800087 141.4 1.10009 141.4H4.80009C5.20009 141.4 5.40009 141.7 5.50009 141.9C5.90009 143.1 6.20009 144.2 6.60009 145.4L8.80009 152.3L13.5001 145.3C13.8001 144.8 14.1001 144.7 14.5001 144.7C14.9001 144.7 15.3001 144.9 15.6001 145.3Z" fill="#264286"/>
<path d="M21.6 161.5C21.1 161.5 20.8 161.3 20.5 160.9L14.6 152.2L8.80002 160.8C8.50002 161.2 8.20001 161.5 7.70001 161.5C7.20001 161.5 6.80002 161.2 6.60002 160.6L1.90002 146C1.70002 145.3 1.40001 144.6 1.20001 143.9C1.00001 143.3 0.800015 142.6 0.600015 142C0.500015 141.8 0.600014 141.6 0.700014 141.5C0.800014 141.4 1.00002 141.3 1.10002 141.3H4.80002C5.40002 141.3 5.50002 141.8 5.60002 141.9C5.80002 142.5 6.00002 143 6.10002 143.6C6.30002 144.2 6.50001 144.8 6.70001 145.4L8.80002 152L13.4 145.3C13.8 144.8 14.1 144.6 14.5 144.6C14.9 144.6 15.3 144.9 15.6 145.3L20.2 152.1L22.3 145.5C22.7 144.3 23 143.1 23.4 142C23.5 141.8 23.6 141.4 24.2 141.4H27.9C28.1 141.4 28.2 141.5 28.3 141.6C28.4 141.7 28.4 141.9 28.4 142.1C28.2 142.7 28 143.3 27.8 143.9C27.6 144.5 27.4 145.1 27.2 145.7L22.4 160.7C22.5 161.2 22.1 161.5 21.6 161.5ZM14.6 151.7L14.7 151.9L20.7 160.8C21 161.2 21.2 161.3 21.5 161.3C21.9 161.3 22.2 161.1 22.3 160.6L27.1 145.6C27.3 145 27.5 144.4 27.7 143.8C27.9 143.2 28.1 142.6 28.3 142C28.3 141.9 28.3 141.8 28.3 141.7C28.3 141.6 28.2 141.6 28.1 141.6H24.4C24.1 141.6 24 141.7 23.9 142.1C23.5 143.2 23.2 144.4 22.8 145.6L20.5 152.8L15.6 145.5C15.3 145.1 15 144.9 14.7 144.9C14.4 144.9 14.1 145.1 13.8 145.5L8.90002 152.7L6.60002 145.6C6.40002 145 6.20002 144.4 6.00002 143.8C5.80002 143.2 5.60002 142.7 5.50002 142.1C5.40002 141.8 5.20002 141.7 5.00002 141.7H1.30002C1.20002 141.7 1.10002 141.7 1.10002 141.8C1.00002 141.9 1.00002 142 1.10002 142.1C1.30002 142.8 1.50001 143.4 1.70001 144C1.90001 144.7 2.10002 145.4 2.40002 146.1L7.10002 160.7C7.30002 161.2 7.50002 161.4 8.00002 161.4C8.30002 161.4 8.50002 161.2 8.80002 160.8L14.6 151.7Z" fill="#264286"/>
<path d="M31.6001 137C31.6001 135.6 32.6001 134.8 34.3001 134.8C35.9001 134.8 37.0001 135.6 37.0001 137C37.0001 138.4 36.0001 139.2 34.3001 139.2C32.6001 139.2 31.6001 138.3 31.6001 137ZM32.0001 160.7V141.8C32.0001 141.5 32.2001 141.4 32.4001 141.4H36.2001C36.4001 141.4 36.6001 141.5 36.6001 141.8V160.7C36.6001 161 36.4001 161.1 36.2001 161.1H32.4001C32.1001 161.1 32.0001 161 32.0001 160.7Z" fill="#264286"/>
<path d="M36.1 161.2H32.3C32 161.2 31.8 161 31.8 160.7V141.8C31.8 141.5 32 141.3 32.3 141.3H36.1C36.4 141.3 36.6 141.5 36.6 141.8V160.7C36.7 161 36.5 161.2 36.1 161.2ZM32.4 141.5C32.2 141.5 32.1 141.6 32.1 141.8V160.7C32.1 160.9 32.2 161 32.4 161H36.2C36.4 161 36.5 160.9 36.5 160.7V141.8C36.5 141.6 36.4 141.5 36.2 141.5H32.4V141.5ZM34.3 139.3C32.6 139.3 31.5 138.4 31.5 136.9C31.5 135.4 32.6 134.5 34.3 134.5C36 134.5 37.1 135.4 37.1 136.9C37.1 138.4 36 139.3 34.3 139.3ZM34.3 134.9C32.7 134.9 31.7 135.7 31.7 137C31.7 138.3 32.7 139.1 34.3 139.1C35.8 139.1 36.8 138.3 36.8 137C36.8 135.7 35.8 134.9 34.3 134.9Z" fill="#264286"/>
<path d="M41.9001 160.7V141.8C41.9001 141.6 42.1002 141.4 42.3002 141.4H45.7001C45.9001 141.4 46.1002 141.6 46.1002 141.8V142.7C47.8002 141.4 49.8001 140.9 51.7001 140.9C56.7001 140.9 59.8002 144.2 59.8002 149.1V160.6C59.8002 160.9 59.6001 161 59.4001 161H55.6002C55.4002 161 55.2001 160.9 55.2001 160.6V149.2C55.2001 146.1 53.3002 145.1 51.1002 145.1C48.5002 145.1 46.4001 146.9 46.4001 149.8V160.6C46.4001 160.9 46.2002 161 46.0002 161H42.2001C42.0001 161.1 41.9001 161 41.9001 160.7Z" fill="#264286"/>
<path d="M59.4 161.2H55.6001C55.3001 161.2 55.1001 161 55.1001 160.7V149.3C55.1001 146 53 145.3 51.2 145.3C48.5 145.3 46.6001 147.2 46.6001 149.8V160.6C46.6001 160.9 46.4001 161.1 46.1001 161.1H42.3C42 161.1 41.8 160.9 41.8 160.6V141.7C41.8 141.4 42 141.2 42.3 141.2H45.7C46 141.2 46.2 141.4 46.2 141.7V142.3C47.7 141.2 49.6001 140.7 51.6001 140.7C56.6001 140.7 59.9 144 59.9 149V160.5C60 161 59.7 161.2 59.4 161.2ZM51.2 145C52.8 145 55.4 145.6 55.4 149.3V160.7C55.4 160.9 55.5 161 55.7 161H59.5C59.7 161 59.8 160.9 59.8 160.7V149.2C59.8 144.3 56.7 141.1 51.8 141.1C49.7 141.1 47.8 141.7 46.3 142.8L46 143V141.8C46 141.6 45.9 141.5 45.7 141.5H42.3C42.1 141.5 42 141.6 42 141.8V160.7C42 160.9 42.1 161 42.3 161H46.1001C46.3001 161 46.4 160.9 46.4 160.7V149.9C46.3 147 48.3 145 51.2 145Z" fill="#264286"/>
<path d="M63.8 158.2C63.7 158.1 63.6 157.9 63.8 157.6L65.8 155.2C66 155 66.2 154.9 66.4 155.1C68.2 156.6 69.9 157.3 72.4 157.3C74.5 157.3 75.8 156.5 75.8 155.5C75.8 152.5 64.2 153.9 64.2 146.8C64.2 143.1 67.7 140.9 72 140.9C75.6 140.9 78.1 142.3 79.8 143.8C80 144 80 144.2 79.8 144.4L77.7 146.9C77.5 147.1 77.3 147.1 77.1 146.9C75.8 145.9 74.2 145 71.9 145C69.9 145 68.8 145.6 68.8 146.5C68.8 149.3 80.5 148.2 80.5 154.9C80.5 158.6 77.4 161.5 72.4 161.5C68.7 161.5 66 160.3 63.8 158.2Z" fill="#264286"/>
<path d="M72.4 161.7C68.9 161.7 66.1 160.6 63.7 158.4C63.5 158.2 63.5 157.9 63.7 157.6L65.7 155.2C66 154.9 66.3001 154.9 66.5001 155.1C68.4001 156.7 70.1 157.3 72.4 157.3C74.3 157.3 75.6001 156.6 75.6001 155.7C75.6001 154.6 73.8 154.1 71.7 153.5C68.3 152.5 64.0001 151.4 64.0001 146.9C64.0001 143.4 67.2 140.9 71.9 140.9C74.9 140.9 77.6001 141.9 79.8001 143.9C80.0001 144.1 80.1001 144.4 79.8001 144.7L77.7 147.2C77.5 147.4 77.2 147.4 76.9 147.3C75.7 146.4 74.2001 145.4 71.8001 145.4C70.0001 145.4 68.8001 145.9 68.8001 146.7C68.8001 147.7 70.6 148.2 72.7 148.8C76.2 149.8 80.5001 151 80.5001 155.1C80.6001 158.9 77.3 161.7 72.4 161.7ZM63.9 158.2C66.2 160.4 69 161.4 72.4 161.4C77.1 161.4 80.4 158.8 80.4 155C80.4 151 76.2001 149.9 72.8001 148.9C70.5001 148.3 68.7 147.8 68.7 146.5C68.7 145.5 70.0001 144.9 72.0001 144.9C74.5001 144.9 76.0001 145.9 77.3001 146.9C77.4001 147 77.6 147 77.7 146.9L79.8001 144.4C79.9001 144.3 79.9001 144.2 79.8001 144C77.6001 142.1 75.0001 141.1 72.1001 141.1C67.6001 141.1 64.5001 143.5 64.5001 146.9C64.5001 151.1 68.7001 152.3 72.0001 153.2C74.3001 153.8 76.1001 154.3 76.1001 155.6C76.1001 156.7 74.7001 157.5 72.6001 157.5C70.3001 157.5 68.5001 156.8 66.6001 155.2C66.5001 155.1 66.3001 155.1 66.1001 155.3L64.1001 157.7C63.7001 157.9 63.8 158.1 63.9 158.2Z" fill="#264286"/>
<path d="M85.7 153.8V145.6H83.4C83.2 145.6 83 145.4 83 145.2V141.8C83 141.6 83.2 141.4 83.4 141.4H85.7V137.7C85.7 137.4 85.9 137.2 86.1 137.2C87.2 137 88.6 136.8 89.7 136.6C90.1 136.5 90.3 136.8 90.3 137V141.4H95.5C95.7 141.4 95.9 141.6 95.9 141.8V145.2C95.9 145.4 95.7 145.6 95.5 145.6H90.3V153.6C90.3 156 91.9 157.2 94.1 157.2C94.6 157.2 95.2 157.1 95.6 157C95.9 156.9 96 157 96.1 157.2L96.9 160.4C96.9 160.6 96.9 160.8 96.7 160.8C95.7 161.1 94.6 161.2 93.7 161.2C88.5 161.4 85.7 157.8 85.7 153.8Z" fill="#264286"/>
<path d="M93.6999 161.6C89.7999 161.6 85.5999 159.2 85.5999 153.9V145.8H83.3999C83.0999 145.8 82.8999 145.6 82.8999 145.3V141.9C82.8999 141.6 83.0999 141.4 83.3999 141.4H85.5999V137.8C85.5999 137.4 85.7999 137.2 86.1999 137.1C87.2999 136.9 88.5999 136.7 89.7999 136.5C89.9999 136.5 90.1999 136.5 90.3999 136.6C90.4999 136.7 90.5999 136.8 90.5999 137V141.3H95.6999C95.9999 141.3 96.1999 141.5 96.1999 141.8V145.2C96.1999 145.5 95.9999 145.7 95.6999 145.7H90.5999V153.6C90.5999 155.8 91.9999 157.1 94.2999 157.1C94.7999 157.1 95.2999 157 95.7999 156.9C96.0999 156.8 96.3999 156.9 96.4999 157.2L97.2999 160.4C97.2999 160.6 97.2999 160.9 96.9999 161C95.6999 161.5 94.4999 161.6 93.6999 161.6ZM83.3999 141.5C83.1999 141.5 83.0999 141.6 83.0999 141.8V145.2C83.0999 145.4 83.1999 145.5 83.3999 145.5H85.7999V153.9C85.7999 159 89.8999 161.3 93.5999 161.3C94.3999 161.3 95.4999 161.2 96.5999 160.9C96.6999 160.9 96.7999 160.7 96.6999 160.6L95.8999 157.4C95.8999 157.3 95.7999 157.2 95.5999 157.3C95.0999 157.4 94.5999 157.5 93.9999 157.5C91.5999 157.5 89.9999 156.1 89.9999 153.7V145.5H95.3999C95.5999 145.5 95.6999 145.4 95.6999 145.2V141.8C95.6999 141.6 95.5999 141.5 95.3999 141.5H89.9999V137C89.9999 136.9 89.9999 136.8 89.8999 136.8C89.7999 136.7 89.6999 136.7 89.5999 136.7C88.3999 136.9 87.0999 137.1 85.9999 137.3C85.7999 137.3 85.6999 137.5 85.6999 137.7V141.6H83.3999V141.5Z" fill="#264286"/>
<path d="M109.8 152.7V141.8C109.8 141.5 110 141.4 110.2 141.4H114C114.2 141.4 114.4 141.5 114.4 141.8V152.9C114.4 155.8 116.2 157.4 118.8 157.4C121.3 157.4 123.2 155.8 123.2 152.9V141.8C123.2 141.5 123.4 141.4 123.6 141.4H127.4C127.6 141.4 127.8 141.5 127.8 141.8V152.8C127.8 157.7 124.8 161.6 118.8 161.6C112.8 161.5 109.8 157.6 109.8 152.7Z" fill="#264286"/>
<path d="M118.7 161.7C113.2 161.7 109.6 158.2 109.6 152.8V141.9C109.6 141.6 109.8 141.4 110.1 141.4H113.9C114.2 141.4 114.4 141.6 114.4 141.9V153C114.4 155.7 116 157.3 118.7 157.3C121.3 157.3 123 155.6 123 153V141.9C123 141.6 123.2 141.4 123.5 141.4H127.3C127.6 141.4 127.8 141.6 127.8 141.9V152.9C127.9 158.2 124.3 161.7 118.7 161.7ZM110.2 141.5C110 141.5 109.9 141.6 109.9 141.8V152.7C109.9 158 113.3 161.4 118.7 161.4C124.1 161.4 127.5 158 127.5 152.8V141.8C127.5 141.6 127.4 141.5 127.2 141.5H123.4C123.2 141.5 123.1 141.6 123.1 141.8V152.9C123.1 155.7 121.4 157.5 118.6 157.5C115.8 157.5 114.1 155.7 114.1 152.9V141.8C114.1 141.6 114 141.5 113.8 141.5H110.2V141.5Z" fill="#264286"/>
<path d="M132.5 137C132.5 135.6 133.5 134.8 135.2 134.8C136.8 134.8 137.9 135.6 137.9 137C137.9 138.4 136.9 139.2 135.2 139.2C133.6 139.2 132.5 138.3 132.5 137ZM132.9 160.7V141.8C132.9 141.5 133.1 141.4 133.3 141.4H137.1C137.3 141.4 137.5 141.5 137.5 141.8V160.7C137.5 161 137.3 161.1 137.1 161.1H133.3C133.1 161.1 132.9 161 132.9 160.7Z" fill="#264286"/>
<path d="M137.1 161.2H133.3C133 161.2 132.8 161 132.8 160.7V141.8C132.8 141.5 133 141.3 133.3 141.3H137.1C137.4 141.3 137.6 141.5 137.6 141.8V160.7C137.6 161 137.4 161.2 137.1 161.2ZM133.3 141.5C133.1 141.5 133 141.6 133 141.8V160.7C133 160.9 133.1 161 133.3 161H137.1C137.3 161 137.4 160.9 137.4 160.7V141.8C137.4 141.6 137.3 141.5 137.1 141.5H133.3V141.5ZM135.2 139.3C133.5 139.3 132.4 138.4 132.4 136.9C132.4 135.4 133.5 134.5 135.2 134.5C136.9 134.5 138 135.4 138 136.9C138 138.4 136.9 139.3 135.2 139.3ZM135.2 134.9C133.6 134.9 132.6 135.7 132.6 137C132.6 138.3 133.6 139.1 135.2 139.1C136.7 139.1 137.7 138.3 137.7 137C137.8 135.7 136.8 134.9 135.2 134.9Z" fill="#264286"/>
<path d="M143.7 153.8V145.6H141.4C141.2 145.6 141 145.4 141 145.2V141.8C141 141.6 141.2 141.4 141.4 141.4H143.7V137.7C143.7 137.4 143.9 137.2 144.1 137.2C145.2 137 146.6 136.8 147.7 136.6C148.1 136.5 148.3 136.8 148.3 137V141.4H153.5C153.7 141.4 153.9 141.6 153.9 141.8V145.2C153.9 145.4 153.7 145.6 153.5 145.6H148.3V153.6C148.3 156 149.9 157.2 152.1 157.2C152.6 157.2 153.2 157.1 153.6 157C153.9 156.9 154 157 154.1 157.2L154.9 160.4C154.9 160.6 154.9 160.8 154.7 160.8C153.7 161.1 152.6 161.2 151.7 161.2C146.5 161.4 143.7 157.8 143.7 153.8Z" fill="#264286"/>
<path d="M151.7 161.6C147.8 161.6 143.6 159.2 143.6 153.9V145.8H141.4C141.1 145.8 140.9 145.6 140.9 145.3V141.9C140.9 141.6 141.1 141.4 141.4 141.4H143.6V137.8C143.6 137.4 143.8 137.2 144.2 137.1C145.3 136.9 146.6 136.7 147.8 136.5C148 136.5 148.2 136.5 148.4 136.6C148.5 136.7 148.6 136.8 148.6 137V141.3H153.7C154 141.3 154.2 141.5 154.2 141.8V145.2C154.2 145.5 154 145.7 153.7 145.7H148.6V153.6C148.6 155.8 150 157.1 152.3 157.1C152.8 157.1 153.3 157 153.8 156.9C154.1 156.8 154.4 156.9 154.5 157.2L155.3 160.4C155.3 160.6 155.3 160.9 155 161C153.6 161.5 152.5 161.6 151.7 161.6ZM141.4 141.5C141.2 141.5 141.1 141.6 141.1 141.8V145.2C141.1 145.4 141.2 145.5 141.4 145.5H143.8V153.9C143.8 159 147.9 161.3 151.6 161.3C152.4 161.3 153.5 161.2 154.6 160.9C154.7 160.9 154.8 160.7 154.7 160.6L153.9 157.4C153.9 157.3 153.8 157.2 153.6 157.3C153.1 157.4 152.6 157.5 152 157.5C149.6 157.5 148 156.1 148 153.7V145.5H153.4C153.6 145.5 153.7 145.4 153.7 145.2V141.8C153.7 141.6 153.6 141.5 153.4 141.5H148V137C148 136.9 148 136.8 147.9 136.8C147.8 136.7 147.7 136.7 147.6 136.7C146.4 136.9 145.1 137.1 144 137.3C143.8 137.3 143.7 137.5 143.7 137.7V141.6H141.4V141.5Z" fill="#264286"/>
<path d="M165.7 165.4C165.5 165.3 165.5 165 165.6 164.9L166.9 162.2C167 161.9 167.3 161.9 167.4 162C167.8 162.2 168.4 162.4 169 162.4C169.3 162.4 169.5 162.4 169.5 162.2V141.8C169.5 141.5 169.7 141.4 169.9 141.4H173.7C173.9 141.4 174.1 141.5 174.1 141.8V161.2C174.1 164.3 172.2 166.3 169.4 166.3C167.6 166.3 166.6 166 165.7 165.4ZM169.1 137C169.1 135.6 170.1 134.8 171.8 134.8C173.5 134.8 174.5 135.6 174.5 137C174.5 138.4 173.5 139.2 171.8 139.2C170.2 139.2 169.1 138.3 169.1 137Z" fill="#264286"/>
<path d="M169.4 166.4C167.8 166.4 166.7 166.1 165.7 165.5C165.4 165.3 165.4 165 165.5 164.8L166.8 162.1C166.9 162 167 161.9 167.1 161.8C167.2 161.8 167.4 161.8 167.5 161.8C167.9 162 168.5 162.2 169.1 162.2C169.4 162.2 169.4 162.2 169.4 162.2V141.8C169.4 141.5 169.6 141.3 169.9 141.3H173.7C174 141.3 174.2 141.5 174.2 141.8V161.2C174.2 164.3 172.3 166.4 169.4 166.4ZM165.8 165.3C166.8 165.9 167.8 166.2 169.4 166.2C172.2 166.2 174 164.3 174 161.3V141.9C174 141.7 173.9 141.6 173.7 141.6H169.9C169.7 141.6 169.6 141.7 169.6 141.9V162.3C169.6 162.6 169.2 162.6 169 162.6C168.4 162.6 167.7 162.4 167.3 162.1C167.3 162.1 167.2 162.1 167.1 162.1C167 162.1 167 162.2 166.9 162.3L165.6 165C165.6 165 165.6 165.2 165.8 165.3ZM171.8 139.3C170.1 139.3 169 138.4 169 136.9C169 135.4 170.1 134.5 171.8 134.5C173.6 134.5 174.6 135.4 174.6 136.9C174.6 138.4 173.5 139.3 171.8 139.3ZM171.8 134.9C170.2 134.9 169.3 135.7 169.3 137C169.3 138.3 170.3 139.1 171.8 139.1C173.4 139.1 174.4 138.3 174.4 137C174.4 135.7 173.4 134.9 171.8 134.9Z" fill="#264286"/>
<path d="M178.4 151.2C178.4 145.6 183.1 141 188.7 141C194.4 141 199.1 145.6 199.1 151.2C199.1 152.4 198.7 153.3 197.7 153.3H183.4C184.2 155.6 186.2 157.3 188.8 157.3C191 157.3 192.6 156.4 193.8 154.9C193.9 154.7 194.2 154.7 194.4 154.8L197.1 156.9C197.4 157.1 197.3 157.3 197.2 157.5C195.1 160 192.2 161.5 188.8 161.5C183.1 161.5 178.4 156.9 178.4 151.2ZM183.4 149.1H194.2C193.4 146.8 191.2 145.2 188.8 145.2C186.3 145.2 184.1 146.8 183.4 149.1Z" fill="#264286"/>
<path d="M188.7 161.7C182.9 161.7 178.2 157 178.2 151.2C178.2 145.5 182.9 140.8 188.7 140.8C194.5 140.8 199.2 145.4 199.2 151.2C199.2 152.6 198.6 153.5 197.7 153.5H183.6C184.4 155.7 186.4 157.2 188.8 157.2C190.8 157.2 192.4 156.4 193.7 154.8C193.9 154.6 194.2 154.5 194.5 154.7L197.2 156.8C197.3 156.9 197.4 157 197.4 157.2C197.4 157.4 197.3 157.5 197.3 157.6C195.1 160.2 192.1 161.7 188.7 161.7ZM188.7 141.1C183.1 141.1 178.5 145.6 178.5 151.2C178.5 156.8 183.1 161.4 188.7 161.4C192 161.4 194.9 160 197 157.4C197 157.4 197.1 157.3 197.1 157.2C197.1 157.1 197 157.1 197 157L194.3 154.9C194.1 154.8 194 154.8 193.9 154.9C192.5 156.6 190.9 157.4 188.8 157.4C186.3 157.4 184.1 155.8 183.3 153.3L183.2 153.1H197.7C198.8 153.1 199 151.7 199 151.1C198.9 145.6 194.3 141.1 188.7 141.1ZM194.4 149.2H183.2L183.3 149C184.1 146.6 186.3 145 188.8 145C191.2 145 193.5 146.6 194.4 149V149.2ZM183.6 149H194C193.1 146.8 191 145.4 188.8 145.4C186.4 145.4 184.4 146.8 183.6 149Z" fill="#264286"/>
<path d="M226.5 145.3L231.2 152.3L233.4 145.4C233.8 144.2 234.1 143 234.5 141.9C234.6 141.6 234.8 141.4 235.2 141.4H238.9C239.1 141.4 239.4 141.6 239.3 142C238.9 143.2 238.5 144.4 238.1 145.6L233.3 160.6C233.1 161.2 232.7 161.4 232.4 161.4C232 161.4 231.8 161.3 231.5 160.9L225.5 152L219.5 160.7C219.2 161.1 218.9 161.4 218.6 161.4C218.2 161.4 217.8 161.2 217.6 160.6L212.9 146C212.5 144.6 212.1 143.4 211.6 142C211.5 141.6 211.7 141.4 212 141.4H215.7C216.1 141.4 216.3 141.7 216.4 141.9C216.8 143.1 217.1 144.2 217.5 145.4L219.7 152.3L224.4 145.3C224.7 144.8 225 144.7 225.4 144.7C225.8 144.7 226.2 144.9 226.5 145.3Z" fill="#264286"/>
<path d="M232.4 161.5C231.9 161.5 231.6 161.3 231.3 160.9L225.4 152.2L219.6 160.8C219.3 161.2 219 161.5 218.5 161.5C218 161.5 217.6 161.2 217.4 160.6L212.7 146C212.5 145.3 212.2 144.6 212 143.9C211.8 143.3 211.6 142.6 211.4 142C211.3 141.8 211.4 141.6 211.5 141.5C211.6 141.4 211.8 141.3 211.9 141.3H215.6C216.2 141.3 216.3 141.8 216.4 141.9C216.6 142.5 216.8 143 216.9 143.6C217.1 144.2 217.3 144.8 217.5 145.4L219.6 152L224.2 145.3C224.6 144.8 224.9 144.6 225.3 144.6C225.7 144.6 226.1 144.9 226.4 145.3L231 152.1L233.1 145.5C233.5 144.3 233.8 143.1 234.2 142C234.3 141.8 234.4 141.4 235 141.4H238.7C238.9 141.4 239 141.5 239.1 141.6C239.2 141.7 239.2 141.9 239.2 142.1C239 142.7 238.8 143.3 238.6 143.9C238.4 144.5 238.2 145.1 238 145.7L233.2 160.7C233.3 161.2 232.9 161.5 232.4 161.5ZM225.5 151.7L225.6 151.9L231.6 160.8C231.9 161.2 232.1 161.3 232.4 161.3C232.8 161.3 233.1 161.1 233.2 160.6L238 145.6C238.2 145 238.4 144.4 238.6 143.8C238.8 143.2 239 142.6 239.2 142C239.2 141.9 239.2 141.8 239.2 141.7C239.2 141.6 239.1 141.6 239 141.6H235.3C235 141.6 234.9 141.7 234.8 142.1C234.4 143.2 234.1 144.4 233.7 145.6L231.4 152.8L226.5 145.5C226.2 145.1 225.9 144.9 225.6 144.9C225.3 144.9 225 145.1 224.7 145.5L219.8 152.7L217.5 145.6C217.3 145 217.1 144.4 216.9 143.8C216.7 143.2 216.5 142.7 216.4 142.1C216.3 141.8 216.1 141.7 215.9 141.7H212C211.9 141.7 211.8 141.7 211.8 141.8C211.7 141.9 211.7 142 211.8 142.1C212 142.8 212.2 143.4 212.4 144C212.6 144.7 212.8 145.4 213.1 146.1L217.8 160.7C218 161.2 218.2 161.4 218.7 161.4C219 161.4 219.2 161.2 219.5 160.8L225.5 151.7Z" fill="#264286"/>
<path d="M240.9 151.2C240.9 145.6 245.6 141 251.2 141C256.8 141 261.5 145.6 261.5 151.2C261.5 156.9 256.8 161.5 251.2 161.5C245.6 161.5 240.9 156.9 240.9 151.2ZM257 151.2C257 148 254.5 145.2 251.2 145.2C248 145.2 245.4 148 245.4 151.2C245.4 154.4 247.9 157.3 251.2 157.3C254.5 157.3 257 154.5 257 151.2Z" fill="#264286"/>
<path d="M251.2 161.7C245.4 161.7 240.7 157 240.7 151.2C240.7 145.5 245.4 140.8 251.2 140.8C257 140.8 261.7 145.4 261.7 151.2C261.7 157 257 161.7 251.2 161.7ZM251.2 141.1C245.6 141.1 241 145.6 241 151.2C241 156.8 245.6 161.4 251.2 161.4C256.8 161.4 261.4 156.8 261.4 151.2C261.4 145.6 256.8 141.1 251.2 141.1ZM251.2 157.4C248 157.4 245.3 154.6 245.3 151.2C245.3 147.8 248 145 251.2 145C254.4 145 257.1 147.7 257.1 151.1C257.1 154.6 254.5 157.4 251.2 157.4ZM251.2 145.4C248.2 145.4 245.6 148.1 245.6 151.3C245.6 154.6 248.1 157.3 251.2 157.3C254.3 157.3 256.8 154.6 256.8 151.3C256.8 148 254.3 145.4 251.2 145.4Z" fill="#264286"/>
<path d="M264.8 160.7V141.8C264.8 141.6 265 141.4 265.2 141.4H268.6C268.8 141.4 269 141.6 269 141.8V142.7C270.7 141.4 272.7 140.9 274.6 140.9C279.6 140.9 282.7 144.2 282.7 149.1V160.6C282.7 160.9 282.5 161 282.3 161H278.5C278.3 161 278.1 160.9 278.1 160.6V149.2C278.1 146.1 276.2 145.1 274 145.1C271.4 145.1 269.3 146.9 269.3 149.8V160.6C269.3 160.9 269.1 161 268.9 161H265.1C265 161.1 264.8 161 264.8 160.7Z" fill="#264286"/>
<path d="M282.4 161.2H278.6C278.3 161.2 278.1 161 278.1 160.7V149.3C278.1 146 276 145.3 274.2 145.3C271.5 145.3 269.6 147.2 269.6 149.8V160.6C269.6 160.9 269.4 161.1 269.1 161.1H265.3C265 161.1 264.8 160.9 264.8 160.6V141.7C264.8 141.4 265 141.2 265.3 141.2H268.7C269 141.2 269.2 141.4 269.2 141.7V142.3C270.7 141.2 272.6 140.7 274.6 140.7C279.6 140.7 282.9 144 282.9 149V160.5C282.9 161 282.7 161.2 282.4 161.2ZM274.1 145C275.7 145 278.3 145.6 278.3 149.3V160.7C278.3 160.9 278.4 161 278.6 161H282.4C282.6 161 282.7 160.9 282.7 160.7V149.2C282.7 144.3 279.6 141.1 274.7 141.1C272.6 141.1 270.7 141.7 269.2 142.8L269 143V141.8C269 141.6 268.9 141.5 268.7 141.5H265.3C265.1 141.5 265 141.6 265 141.8V160.7C265 160.9 265.1 161 265.3 161H269.1C269.3 161 269.4 160.9 269.4 160.7V149.9C269.3 147 271.3 145 274.1 145Z" fill="#264286"/>
<path d="M287.6 137C287.6 135.6 288.6 134.8 290.3 134.8C291.9 134.8 293 135.6 293 137C293 138.4 292 139.2 290.3 139.2C288.7 139.2 287.6 138.3 287.6 137ZM288 160.7V141.8C288 141.5 288.2 141.4 288.4 141.4H292.2C292.4 141.4 292.6 141.5 292.6 141.8V160.7C292.6 161 292.4 161.1 292.2 161.1H288.4C288.2 161.1 288 161 288 160.7Z" fill="#264286"/>
<path d="M292.2 161.2H288.4C288.1 161.2 287.9 161 287.9 160.7V141.8C287.9 141.5 288.1 141.3 288.4 141.3H292.2C292.5 141.3 292.7 141.5 292.7 141.8V160.7C292.7 161 292.5 161.2 292.2 161.2ZM288.4 141.5C288.2 141.5 288.1 141.6 288.1 141.8V160.7C288.1 160.9 288.2 161 288.4 161H292.2C292.4 161 292.5 160.9 292.5 160.7V141.8C292.5 141.6 292.4 141.5 292.2 141.5H288.4V141.5ZM290.3 139.3C288.6 139.3 287.5 138.4 287.5 136.9C287.5 135.4 288.6 134.5 290.3 134.5C292 134.5 293.1 135.4 293.1 136.9C293.1 138.4 292 139.3 290.3 139.3ZM290.3 134.9C288.7 134.9 287.7 135.7 287.7 137C287.7 138.3 288.7 139.1 290.3 139.1C291.8 139.1 292.8 138.3 292.8 137C292.9 135.7 291.9 134.9 290.3 134.9Z" fill="#264286"/>
<path d="M297.9 160.7V141.8C297.9 141.6 298.1 141.4 298.3 141.4H301.7C301.9 141.4 302.1 141.6 302.1 141.8V142.7C303.8 141.4 305.8 140.9 307.7 140.9C312.7 140.9 315.8 144.2 315.8 149.1V160.6C315.8 160.9 315.6 161 315.4 161H311.6C311.4 161 311.2 160.9 311.2 160.6V149.2C311.2 146.1 309.3 145.1 307.1 145.1C304.5 145.1 302.4 146.9 302.4 149.8V160.6C302.4 160.9 302.2 161 302 161H298.2C298.1 161.1 297.9 161 297.9 160.7Z" fill="#264286"/>
<path d="M315.5 161.2H311.7C311.4 161.2 311.2 161 311.2 160.7V149.3C311.2 146 309.1 145.3 307.3 145.3C304.6 145.3 302.7 147.2 302.7 149.8V160.6C302.7 160.9 302.5 161.1 302.2 161.1H298.4C298.1 161.1 297.9 160.9 297.9 160.6V141.7C297.9 141.4 298.1 141.2 298.4 141.2H301.8C302.1 141.2 302.3 141.4 302.3 141.7V142.3C303.8 141.2 305.7 140.7 307.7 140.7C312.7 140.7 316 144 316 149V160.5C316 161 315.8 161.2 315.5 161.2ZM307.2 145C308.8 145 311.4 145.6 311.4 149.3V160.7C311.4 160.9 311.5 161 311.7 161H315.5C315.7 161 315.8 160.9 315.8 160.7V149.2C315.8 144.3 312.7 141.1 307.8 141.1C305.7 141.1 303.8 141.7 302.3 142.8L302 143V141.8C302 141.6 301.9 141.5 301.7 141.5H298.3C298.1 141.5 298 141.6 298 141.8V160.7C298 160.9 298.1 161 298.3 161H302.1C302.3 161 302.4 160.9 302.4 160.7V149.9C302.4 147 304.4 145 307.2 145Z" fill="#264286"/>
<path d="M321.2 164.5C321 164.4 321 164.1 321.1 163.9L322.7 161.3C322.8 161.2 323 161 323.3 161.2C324.7 162.1 326.5 162.7 328.3 162.7C331 162.7 333.3 161.3 333.7 158.5C332.6 159.5 331 160.1 329 160.1C323.8 160.1 319.4 155.8 319.4 150.6C319.4 145.4 323.8 141.2 329 141.2C330.7 141.2 332.5 141.7 334 142.7V142C334 141.8 334.2 141.6 334.4 141.6H338.2C338.4 141.6 338.6 141.8 338.6 142V157C338.6 162.7 334.5 166.8 328.8 166.8C325.9 166.6 323.4 165.9 321.2 164.5ZM334 150.5C334 147.7 331.8 145.3 329 145.3C326.1 145.3 324 147.8 324 150.5C324 153.3 326.2 155.8 329 155.8C331.8 155.7 334 153.3 334 150.5Z" fill="#264286"/>
<path d="M328.8 166.7C325.8 166.7 323.4 166 321.1 164.5C320.8 164.3 320.8 164 321 163.7L322.6 161.1C322.7 160.9 323 160.8 323.4 161C324.8 161.9 326.6 162.4 328.3 162.4C331.1 162.4 333 161 333.5 158.7C332.3 159.6 330.8 160 329 160C323.6 160 319.3 155.7 319.3 150.3C319.3 145 323.7 140.8 329 140.8C330.7 140.8 332.4 141.3 333.9 142.2V141.7C333.9 141.4 334.1 141.2 334.4 141.2H338.2C338.5 141.2 338.7 141.4 338.7 141.7V156.7C338.7 162.6 334.6 166.7 328.8 166.7ZM321.2 164.4C323.4 165.8 325.9 166.5 328.8 166.5C334.4 166.5 338.4 162.4 338.4 156.8V141.8C338.4 141.6 338.3 141.5 338.1 141.5H334.3C334.1 141.5 334 141.6 334 141.8V142.8L333.8 142.7C332.3 141.7 330.6 141.2 328.9 141.2C323.7 141.2 319.5 145.4 319.5 150.5C319.5 155.7 323.7 159.9 328.9 159.9C330.8 159.9 332.4 159.4 333.5 158.4L333.8 158.1L333.7 158.5C333.3 161.2 331.1 162.8 328.1 162.8C326.3 162.8 324.5 162.3 323 161.3C322.8 161.2 322.6 161.3 322.6 161.4L321 164C321.1 164.1 321.1 164.3 321.2 164.4ZM329 155.9C326.1 155.9 323.8 153.5 323.8 150.5C323.8 147.6 326.1 145.2 328.9 145.2C331.7 145.2 334 147.6 334 150.5C334.2 153.4 331.8 155.9 329 155.9ZM329 145.4C326.3 145.4 324.1 147.7 324.1 150.5C324.1 153.3 326.3 155.6 329 155.6C331.6 155.6 333.8 153.3 333.8 150.5C333.9 147.7 331.7 145.4 329 145.4Z" fill="#264286"/>
<defs>
<linearGradient id="paint0_linear_1361_433" x1="169.66" y1="0.578579" x2="169.66" y2="109.917" gradientUnits="userSpaceOnUse">
<stop offset="0.1167" stop-color="#C93E69"/>
<stop offset="0.9637" stop-color="#264286"/>
</linearGradient>
</defs>
</svg>
